<svg width="48" height="48" viewBox="0 0 48 48" fill="none" xmlns="http://www.w3.org/2000/svg">
<rect width="48" height="48" rx="24" fill="#30030B"/>
<path d="M24.9999 25V30.585L26.8279 28.757L28.2429 30.172L23.9999 34.414L19.7569 30.172L21.1719 28.757L22.9999 30.585V25H24.9999ZM23.9999 14C25.7169 14.0001 27.374 14.6311 28.6561 15.7731C29.9382 16.9151 30.756 18.4885 30.9539 20.194C32.1982 20.5333 33.2836 21.2991 34.0206 22.3575C34.7575 23.416 35.099 24.6997 34.9855 25.9844C34.872 27.2691 34.3106 28.473 33.3995 29.3858C32.4883 30.2986 31.2854 30.8622 30.0009 30.978L29.9999 29C30.0015 27.4271 29.3854 25.9166 28.2842 24.7935C27.1831 23.6703 25.685 23.0245 24.1124 22.995C22.5398 22.9655 21.0186 23.5547 19.8761 24.6357C18.7336 25.7168 18.0613 27.2032 18.0039 28.775L17.9999 29V30.978C16.7153 30.8623 15.5123 30.2989 14.601 29.3862C13.6898 28.4735 13.1282 27.2696 13.0146 25.9848C12.9009 24.7001 13.2424 23.4163 13.9793 22.3578C14.7162 21.2993 15.8016 20.5334 17.0459 20.194C17.2436 18.4884 18.0613 16.9149 19.3435 15.7729C20.6256 14.6308 22.2829 13.9999 23.9999 14Z" fill="#F13253"/>
</svg>
