<svg width="48" height="48" viewBox="0 0 48 48" fill="none" xmlns="http://www.w3.org/2000/svg">
<rect width="48" height="48" rx="24" fill="#30030B"/>
<path d="M15 15.993C15 15.445 15.445 15 15.993 15H32.007C32.555 15 33 15.445 33 15.993V32.007C32.9997 32.2703 32.895 32.5227 32.7089 32.7089C32.5227 32.895 32.2703 32.9997 32.007 33H15.993C15.7297 32.9997 15.4773 32.895 15.2911 32.7089C15.105 32.5227 15.0003 32.2703 15 32.007V15.993ZM22.622 20.415C22.5618 20.3748 22.4919 20.3518 22.4196 20.3482C22.3473 20.3447 22.2755 20.3608 22.2116 20.3949C22.1478 20.4289 22.0944 20.4797 22.0572 20.5417C22.0199 20.6037 22.0001 20.6747 22 20.747V27.253C22.0001 27.3253 22.0199 27.3963 22.0572 27.4583C22.0944 27.5203 22.1478 27.5711 22.2116 27.6051C22.2755 27.6392 22.3473 27.6553 22.4196 27.6518C22.4919 27.6482 22.5618 27.6252 22.622 27.585L27.501 24.333C27.5559 24.2965 27.6009 24.247 27.632 24.1889C27.6631 24.1308 27.6794 24.0659 27.6794 24C27.6794 23.9341 27.6631 23.8692 27.632 23.8111C27.6009 23.753 27.5559 23.7035 27.501 23.667L22.621 20.415H22.622Z" fill="#F13253"/>
</svg>
